<?xml version="1.0" encoding="UTF-8" standalone="no"?>
<svg width="33px" height="32px" viewBox="0 0 33 32" version="1.1" xmlns="http://www.w3.org/2000/svg" xmlns:xlink="http://www.w3.org/1999/xlink" xmlns:sketch="http://www.bohemiancoding.com/sketch/ns">
  <defs>
      <path id="path-1" class="icon-github" d="M0,0.225 L32.579,0.225 L32.579,32 L0,32"></path>
  </defs>
  <g id="Key-Screens" stroke="none" stroke-width="1" fill="none" fill-rule="evenodd" sketch:type="MSPage">
      <g id="icon-github" sketch:type="MSLayerGroup">
          <mask id="mask-2" sketch:name="Clip 2">
              <use xlink:href="#path-1"></use>
          </mask>
          <g id="Clip-2"></g>
          <path class="icon-github" d="M16.2885,0.2254 C7.2935,0.2254 0.0005,7.5184 0.0005,16.5154 C0.0005,23.7124 4.6675,29.8174 11.1405,31.9724 C11.9555,32.1214 12.2525,31.6184 12.2525,31.1864 C12.2525,30.8004 12.2385,29.7754 12.2305,28.4164 C7.6995,29.4004 6.7435,26.2324 6.7435,26.2324 C6.0025,24.3514 4.9345,23.8494 4.9345,23.8494 C3.4555,22.8394 5.0465,22.8594 5.0465,22.8594 C6.6815,22.9744 7.5415,24.5384 7.5415,24.5384 C8.9945,27.0274 11.3545,26.3084 12.2825,25.8924 C12.4305,24.8394 12.8505,24.1214 13.3165,23.7144 C9.6995,23.3034 5.8965,21.9054 5.8965,15.6634 C5.8965,13.8854 6.5315,12.4314 7.5735,11.2924 C7.4055,10.8804 6.8465,9.2244 7.7325,6.9814 C7.7325,6.9814 9.1005,6.5434 12.2125,8.6514 C13.5115,8.2894 14.9055,8.1094 16.2905,8.1034 C17.6735,8.1094 19.0675,8.2894 20.3685,8.6514 C23.4785,6.5434 24.8435,6.9814 24.8435,6.9814 C25.7325,9.2244 25.1735,10.8804 25.0055,11.2924 C26.0495,12.4314 26.6805,13.8854 26.6805,15.6634 C26.6805,21.9214 22.8715,23.2984 19.2425,23.7014 C19.8275,24.2044 20.3485,25.1984 20.3485,26.7184 C20.3485,28.8954 20.3285,30.6524 20.3285,31.1864 C20.3285,31.6224 20.6215,32.1294 21.4485,31.9704 C27.9165,29.8114 32.5795,23.7104 32.5795,16.5154 C32.5795,7.5184 25.2855,0.2254 16.2885,0.2254" id="Fill-1" fill="#181616" sketch:type="MSShapeGroup" mask="url(#mask-2)"></path>
      </g>
  </g>
</svg>
